<?xml version="1.0" encoding="utf-8"?>
<!-- Generator: Adobe Illustrator 21.1.0, SVG Export Plug-In . SVG Version: 6.00 Build 0)  -->
<svg version="1.1" id="图层_1" xmlns="http://www.w3.org/2000/svg" xmlns:xlink="http://www.w3.org/1999/xlink" x="0px" y="0px"
	 viewBox="0 0 200 200" style="enable-background:new 0 0 200 200;" xml:space="preserve">
<style type="text/css">
	.st0{fill:#499DF1;}
</style>
<path class="st0" d="M47.9,174.9l74.8-74.8L46.9,24.2l0,0c-2.5-2.6-4-6.1-4-9.9C42.9,6.4,49.3,0,57.2,0c3.8,0,7.3,1.5,9.9,4l0,0
	l85.7,85.7l0,0c2.7,2.6,4.4,6.2,4.4,10.3c0,0,0,0,0,0c0,0,0,0,0,0c0,4-1.7,7.7-4.4,10.3l0,0L67.1,196l0,0c-2.6,2.5-6,4-9.9,4
	c-7.9,0-14.3-6.4-14.3-14.3C42.9,181.4,44.8,177.5,47.9,174.9z"/>
</svg>
